<?xml version="1.0" encoding="UTF-8" standalone="no"?>
<!-- Created with Inkscape (http://www.inkscape.org/) -->

<svg
   width="209.65329mm"
   height="297.42499mm"
   viewBox="0 0 209.65329 297.42499"
   version="1.1"
   id="svg5"
   xmlns="http://www.w3.org/2000/svg"
   xmlns:svg="http://www.w3.org/2000/svg">
  <defs
     id="defs2" />
  <g
     id="layer3"
     transform="translate(-0.68895884,-1.1701021)">
    <rect
       style="fill:#ffffff;stroke-width:0.264583"
       id="rect563"
       width="209.65329"
       height="295.27765"
       x="0.68895882"
       y="1.170102"
       ry="3.0529373" />
  </g>
  <g
     id="layer5"
     transform="translate(-0.68895884,-1.1701021)">
    <path
       style="fill:#0000ff;stroke-width:0.264583"
       d="M 1.1320253,243.87271 C 33.965146,228.64514 66.798152,213.41761 101.30863,213.5787 c 34.51047,0.16108 70.69679,15.70995 106.88349,31.25899"
       id="path848" />
    <rect
       style="fill:#0000ff;stroke-width:0.264583"
       id="rect855"
       width="203.32442"
       height="55.467064"
       x="3.4447103"
       y="243.12801"
       ry="3.0529373" />
  </g>
  <g
     id="layer6"
     style="fill:#a05a2c"
     transform="translate(-0.68895884,-1.1701021)">
    <rect
       style="fill:#a05a2c;stroke-width:0.264583"
       id="rect1014"
       width="56.691963"
       height="60.315765"
       x="74.719948"
       y="183.28168"
       ry="3.0529373" />
  </g>
  <g
     id="layer7"
     transform="translate(-0.68895884,-1.1701021)">
    <path
       style="fill:#ff9955;stroke-width:0.265031"
       d="M 103.60911,210.22752 35.356589,157.87962 178.53045,157.77631 Z"
       id="path1071" />
  </g>
  <g
     id="layer8"
     transform="translate(-0.68895884,-1.1701021)">
    <rect
       style="fill:#ff9955;stroke-width:0.284696"
       id="rect1234"
       width="149.74019"
       height="125.79328"
       x="32.767921"
       y="32.483356"
       ry="3.9617186" />
  </g>
  <g
     id="layer9"
     style="fill:#241c1c"
     transform="translate(-0.68895884,-1.1701021)">
    <path
       style="fill:#241c1c;stroke-width:0.264583"
       id="path1341"
       d="m 177.27815,-51.78598 a 72.659515,48.171562 0 0 1 -36.47118,41.771787 72.659515,48.171562 0 0 1 -72.80038,-0.162604 72.659515,48.171562 0 0 1 -36.045819,-41.933758 l 72.657869,0.324575 z"
       transform="scale(1,-1)" />
    <rect
       style="fill:#241c1c;stroke-width:0.264583"
       id="rect1399"
       width="196.26942"
       height="27.602091"
       x="8.64641"
       y="31.020578"
       ry="3.0529373" />
  </g>
  <g
     id="layer10"
     transform="translate(-0.68895884,-1.1701021)">
    <rect
       style="fill:#241c1c;stroke-width:0.264583"
       id="rect1402"
       width="54.036915"
       height="7.5295987"
       x="79.983963"
       y="164.13947"
       ry="3.0529373" />
  </g>
  <g
     id="layer11"
     transform="translate(-0.68895884,-1.1701021)">
    <path
       style="fill:#241c1c;stroke-width:0.264583"
       id="path1461"
       d="m 101.96293,106.98236 6.22068,10.69117 6.22068,10.69116 -12.36916,0.0417 -12.369164,0.0417 6.148481,-10.73285 z"
       transform="matrix(0.70550483,0,0,1,29.894683,12.181588)" />
  </g>
  <g
     id="layer12"
     transform="translate(-0.68895884,-1.1701021)">
    <path
       style="fill:#241c1c;stroke-width:0.264583"
       id="path1464"
       d="m 93.437059,90.312637 a 16.984377,8.4680281 0 0 1 -8.525245,7.343019 16.984377,8.4680281 0 0 1 -17.017306,-0.02858 16.984377,8.4680281 0 0 1 -8.425817,-7.371491 l 16.983991,0.05706 z" />
    <path
       style="fill:#241c1c;stroke-width:0.264583"
       id="path1466"
       d="m 161.37896,90.411324 a 20.364086,8.5505543 0 0 1 -10.22167,7.41458 20.364086,8.5505543 0 0 1 -20.40357,-0.02886 20.364086,8.5505543 0 0 1 -10.10247,-7.443331 l 20.36363,0.05761 z" />
  </g>
  <g
     id="layer13"
     transform="translate(-0.68895884,-1.1701021)">
    <path
       style="fill:#2b0000;stroke-width:0.264583"
       d="m 123.41696,84.861843 34.70446,-12.370202 -0.2682,11.437028"
       id="path1639" />
    <path
       style="fill:#2b0000;stroke-width:0.264583"
       d="m 92.236855,85.512925 -29.402857,-9.527458 0.19571,9.633495"
       id="path1641" />
  </g>
</svg>
